<?xml version="1.0" encoding="UTF-8"?>
<svg version="1.0" viewBox="0 0 4630 2360" xmlns="http://www.w3.org/2000/svg" xmlns:cc="http://creativecommons.org/ns#" xmlns:dc="http://purl.org/dc/elements/1.1/" xmlns:rdf="http://www.w3.org/1999/02/22-rdf-syntax-ns#" id="liguria">
<metadata>
<rdf:RDF>
<cc:Work rdf:about="">
<dc:format>image/svg+xml</dc:format>
<dc:type rdf:resource="http://purl.org/dc/dcmitype/StillImage"/>
</cc:Work>
</rdf:RDF>
</metadata>
<g fill="#cbcbca">
<path d="m241 2299c-76-18-86-18-101-4-25 22-66 10-79-23-5-15-15-47-22-72s-16-49-21-54c-4-6-8-26-8-46 0-42 15-59 76-85 32-14 41-23 42-44 4-88 15-104 77-120 25-6 45-15 45-20 0-6 9-13 20-16s20-13 20-21 5-14 11-14c7 0 9-16 4-51-6-46-5-51 14-56 12-3 21-9 21-14s6-9 13-9c8 0 19-11 25-25s18-25 26-25c23 0 29-36 12-69-18-34-11-91 11-91 7 0 16-6 19-14 11-28 60-29 109-2 25 14 57 26 70 26 28 0 77 17 85 30 3 5 22 5 43 0 29-6 40-5 43 5 6 16 33 9 51-12 9-12 15-12 32-1 18 11 23 11 31-2 7-11 3-17-16-24-36-12-28-43 18-69l37-22 28 21c35 25 59 21 67-12 4-14 13-27 20-30 19-7 7-53-21-81-25-26-28-40-14-62 6-9 5-24-2-39-9-20-8-26 11-41 24-18 22-51-3-51-20 0-25-40-8-66 18-28 26-30 43-9 18 22 30 9 23-25-5-28-3-30 24-30 31 0 62-37 48-59-10-18 5-71 20-71 8 0 19-9 25-21 6-11 17-18 23-16 19 7 47-12 47-31 0-10 4-22 9-27 5-6 3-24-5-42l-14-33h-505-505v-185-185h690 690v113c0 109 1 112 25 123 20 10 29 8 57-12 29-22 34-23 44-9 8 11 29 15 73 15 33 0 61 4 61 10 0 19 29-2 32-23 2-12 9-21 16-19 6 1 11-3 10-10-2-6 7-17 20-23 19-10 20-14 8-24-11-9-13-19-5-38 18-48 29-52 130-47 78 5 97 9 112 26 9 11 17 29 17 39s4 19 9 19c14 0 51 83 51 114 0 24 2 27 15 16 9-7 15-29 15-51 0-32 4-41 23-48 13-5 23-18 24-31 1-12 5-25 8-28 10-10 90-11 102 0 7 5 22 8 35 6 23-3 25-14 13-58-2-8-4-27-4-41-1-14-12-39-26-55-32-37-31-40 5-59 20-10 33-26 37-45 3-16 13-32 22-34 24-8 72 0 80 13 4 6 25 10 46 8 33-2 42 2 50 20 5 13 13 23 17 23 3 0 12 16 18 35 12 36 27 44 48 23 9-9 15-8 27 8 13 17 14 8 15-93v-113h715 715v185 185h-355c-348 0-355 0-355 20 0 11 5 20 11 20 7 0 9 16 5 47-4 27-7 63-8 81-1 24-7 34-22 38-20 5-46 45-46 71 0 7-10 23-22 35-17 17-18 23-8 26 8 3 16 0 18-6 4-14 32-16 32-3 0 5 17 3 38-5 20-7 49-13 64-14 14 0 28-6 31-12 3-10 11-10 33-2 19 7 35 7 45 1 11-7 23-1 48 22 18 17 42 31 52 31 21 0 34 25 44 83 5 34 8 37 40 37 31 0 35 3 47 41 9 30 19 44 39 51 15 5 32 21 38 36 11 27 66 67 87 64 5-1 20 7 32 18s25 20 31 20c11 0 31 54 31 83 0 11 8 26 18 33 11 9 13 16 6 21-6 5-13 18-16 31l-6 22 29-21c29-20 59-20 59 1 0 5 9 10 20 10 21 0 29 30 8 30-7 0-20 11-29 23l-16 22 56-2c30-1 61 3 68 9s13 29 13 52c0 42 32 88 46 65 10-17 67 0 92 27 27 31 28 58 2 84-20 20-20 20 5 20h25v185 185h-525-525v-365c0-263 3-365 11-365s7-7-3-21c-10-15-27-23-58-25-25-3-46-8-48-13-1-4-9-17-17-27-11-15-16-16-26-7-10 10-17 7-36-14-13-14-22-31-19-39 7-19-49-59-162-116-86-42-98-46-112-33-8 9-14 32-14 55 1 22-1 40-4 40s-31-10-63-21c-71-26-85-40-68-67 7-11 9-26 6-35-7-18-78-52-128-62-62-12-134-27-149-32-8-3-32-7-52-9l-38-4v145 145h340 340v185 185h-525-525v-364-364l-40 15c-22 9-40 22-40 29 0 16-31 34-58 34-10 0-27 9-37 20-20 22-71 50-91 50-7 0-17 6-21 13-14 21-68 54-101 62-21 4-32 13-32 24 0 17-29 51-44 51-4 0-18 11-32 24-23 21-24 24-10 39 20 19 8 59-31 99-21 22-24 33-19 60 5 26 2 37-14 51-11 9-27 17-36 17-8 0-42 14-76 30-33 17-66 30-74 30-25 0-65 32-92 74-46 72-52 87-52 143 0 47-4 59-27 83-16 15-33 34-40 41-7 8-19 20-27 27-23 19-30 60-16 87 17 31 6 55-24 55-20 0-36 16-36 36 0 2 189 4 420 4h420v185 185h-720-720v-45c0-25-4-45-10-45-17 0-90 42-90 52 0 6-14 8-36 3-33-6-40-3-65 24-15 17-29 30-31 30-2-1-41-10-87-20zm115-30c23-24 35-29 56-25 20 4 39-2 65-20 21-14 51-28 66-31l28-6-3-128-3-129h65c56 0 68-4 88-25 25-26 44-23 72 9 10 13 41 16 181 16h168l13-27c9-19 22-29 40-31 27-3 27-4 11-28-24-37-4-88 57-151 39-41 50-59 50-85 0-53 18-103 57-160 42-61 58-76 93-84 14-3 53-19 86-35 34-16 69-29 77-29 20 0 32-19 28-44-3-21-39-55-58-56-6 0-20-10-30-23-25-32-76-56-108-49-19 3-30-1-41-17-21-29-32-26-36 10-3 27-9 33-48 46-74 25-120 94-83 125 22 18 15 34-22 48-19 8-35 17-35 22 0 14-27 9-40-7-7-9-15-13-18-10s-12-1-20-8c-12-9-16-9-19 1-3 6-11 12-19 12-9 0-12 4-9 10 3 5 2 10-3 10s-12 9-15 20c-6 24-58 28-77 5-16-19-30-19-57 0-25 17-21 40 6 48 20 5 32 39 21 57-6 10-15 10-43 1-30-10-40-10-62 5s-28 15-43 2c-11-9-29-12-52-9-25 4-40 1-52-11-10-10-30-18-44-18s-54-12-90-26c-63-25-64-25-94-7-17 10-33 28-36 39-8 32 12 64 41 64 32 0 32 14 0 28-14 6-25 16-25 22s-11 15-25 20c-15 6-25 17-25 29 0 13-12 26-35 37-34 16-35 18-33 67 2 33-2 52-10 55-6 2-12 10-12 18s-5 14-11 14-22 9-36 20-35 20-47 20c-24 1-58 23-55 36 1 5-1 31-6 57-7 45-11 50-53 70-26 12-53 34-61 49-14 23-13 30 2 60 9 18 21 51 27 73 16 65 41 85 73 57 15-13 25-13 75-2 31 7 68 16 82 20 14 5 28 9 31 9 3 1 18-13 35-30zm1624-154v-165h-525-525v165 165h525 525v-165zm2630-340v-165h-505-505v165 165h505 505v-165zm-544-210c-15-14-33-25-41-25-7 0-19-13-27-30-7-16-20-30-30-30-9 0-19-6-21-12-3-7-6 17-6 55l-1 67h76 77l-27-25zm99-17c-24-43-25-61-1-52 8 3 17 1 21-5 12-20 45-12 57 14 11 24 35 38 77 44 5 0 11 10 14 21 5 18 14 20 115 20h110l27-31 26-32-27-28c-41-43-60-39-99 16-11 17-16 18-27 6-10-11-10-14 0-18 16-6 15-29-3-57-9-13-15-28-14-32 1-5 1-21 0-36-1-26-2-26-72-25-39 1-73-1-75-5-2-3 8-20 22-38 24-28 25-33 12-47-13-12-19-13-36-2-11 7-26 24-32 37-8 18-14 22-22 14s-7-24 2-58c10-36 11-49 2-52-7-2-12-21-12-42 0-43-32-87-66-93-33-5-95-48-104-73-5-13-20-26-33-29-24-6-47-41-47-70 0-18-17-28-49-29-21-1-28-9-44-56-16-48-24-59-63-79-24-13-44-28-44-34 0-5-6-5-14 2-10 9-20 9-41-1-22-10-28-9-35 2-5 8-29 16-57 17-28 2-53 10-59 18-14 19-34 19-34 0 0-11-5-12-24-5-41 15-50-20-16-60 11-13 20-30 20-40 0-9 5-21 11-27 8-8-3-13-40-18-28-4-53-11-57-16-8-14-32-11-72 8-54 25-81 56-75 87 4 19 1 26-11 26-9 0-16-8-16-18 0-9-9-23-20-30s-20-19-20-28c0-12-6-15-21-11-11 3-35-1-53-8-19-8-36-12-39-9s-8-4-12-15c-5-16-13-20-48-17-48 2-114 32-139 61-22 26-22 30 2 53 19 18 19 18-2 36l-21 19 44 21c26 13 49 18 55 14 14-10 36-7 46 7 9 12-1 76-13 89-15 16-10 24 11 19 26-7 26 12-1 45-19 24-19 27-4 38 10 7 14 17 10 23-3 6-4 11-1 11 2 0 11 3 19 6 11 4 17-4 22-28 4-18 14-42 22-54l14-22 92 46c139 69 194 108 208 149 8 26 15 32 29 28 12-4 25 3 39 21 17 21 30 27 61 27s43 5 52 21c17 32 40 45 78 46 23 0 41-7 53-20 9-11 25-20 35-20 11 0 27 9 37 20 14 16 31 20 82 20h63v103 103l30 17c16 10 37 31 47 47 9 17 22 30 28 30 5 0 26 14 45 30 23 20 46 30 67 30h32l-24-42zm145 32c0-5-9-10-20-10-23 0-70-45-70-67 0-12-2-12-14 0-35 35 4 87 66 87 21 0 38-4 38-10zm-1050-305v-165h-505-505v165 165h505 505v-165zm-2067 65c7 0 21-7 31-15 15-12 17-17 7-29-7-9-11-21-8-28 2-7 1-20-4-29-6-12-2-20 16-29 14-7 27-21 30-30 3-11 23-20 53-26 45-9 47-10 50-46 4-45 14-47 54-13 16 14 34 23 39 19 18-10 49-83 49-113 0-16 7-36 15-45 11-11 13-21 5-40-8-22-4-31 34-72 34-37 47-44 60-37 14 7 28-1 67-38 27-25 49-52 49-58s6-11 14-11c7 0 19-7 26-15 17-20 103-20 158 2 41 15 45 15 54 0 5-11 21-17 41-17 46 0 76-23 70-55-7-35 14-58 49-51 15 3 30 2 32-3 3-5 24-9 47-9 43-1 63-16 54-40-3-8-5-22-5-33s-5-16-14-13c-9 4-13-3-13-22 0-14-4-29-9-33-5-3-17-23-26-44-19-40-24-42-62-27-14 5-27 6-30 1-3-4-25-7-50-6-34 0-49 6-64 25s-17 28-9 41c9 14 5 24-21 50-18 18-32 39-32 46 0 16-44 28-62 17-7-5-39-7-70-5-49 2-58 0-58-14 0-21-19-9-30 20-7 17-14 21-34 18-14-3-26-9-26-14s-7-9-15-9c-12 0-15 13-15 60v60h-64c-35 0-66 3-68 8-1 4-14 14-27 23-23 14-26 14-49-8-20-19-36-23-83-23-33 0-59 2-59 5 0 4 7 20 16 36 14 28 14 32 0 48-9 10-16 25-16 34s-7 17-15 17-15 5-15 10c0 6-8 10-19 10-23 0-67 57-63 82 6 33-21 78-45 78-17 0-23 6-23 23 0 37-14 51-39 38-44-24-54 8-15 44 27 25 27 58-2 69-12 5-13 10-3 27 8 16 8 27-1 45-11 20-10 25 13 46 14 13 25 33 24 43-1 13 9 25 32 37 19 9 39 22 45 28 7 7 12 7 14 0 2-5 9-10 15-10zm478-154c35-30 52-63 39-71-29-18 20-105 59-105 8 0 11-3 8-6-10-10 32-64 50-64s79-36 105-62c10-10 27-18 37-18 11 0 38-16 61-35s53-35 66-35 28-9 34-21c7-11 37-32 68-46 47-21 67-24 112-20 36 4 63 1 79-7 21-12 28-11 59 10 26 18 49 24 88 24 46 0 53 3 56 21 4 29 18 35 113 49 115 17 114 17 185 41 80 27 109 58 93 100-9 23-8 28 9 32 15 4 18 1 13-14-4-10-2-26 3-36 7-12 6-20-4-28-12-8-11-18 6-62 21-55 15-72-19-54-14 8-22 7-31-4-6-8-27-19-46-25-33-11-47-41-25-55 6-3 6-17-1-36-8-24-7-33 6-48 20-22 20-37 1-45-9-3-25 6-40 22-14 15-25 21-25 15 0-15-62-33-70-22-3 5-17 10-30 11-22 3-25-2-35-52-7-35-16-54-24-52-7 1-15-7-18-18s-9-20-14-20-17-16-26-35c-19-39-38-43-85-19-30 16-32 15-48-6-12-16-19-19-24-11-4 6-20 10-34 9-23-3-27 1-25 19 2 15-5 27-20 34-31 17-37 29-31 66 4 26 2 33-11 33-9 0-13 5-10 10 4 6-11 11-37 12-66 3-82 5-100 13-10 4-25 5-33 1-22-8-46 21-39 48 4 18-1 28-24 45-17 11-42 21-55 21-14 0-29 5-32 10-10 15-68 12-93-6-17-12-35-14-72-9-49 7-72 23-115 78-11 14-25 26-32 27-7 0-17 9-23 21-9 16-18 19-37 14-20-5-32 1-61 31-31 31-34 39-23 56 10 16 8 25-9 52-11 18-20 45-20 60s-8 38-17 53c-16 24-16 26 2 39 10 8 24 14 31 14 6 0 20 11 30 25s24 25 30 25 17 7 24 15c16 19 20 19 51-9zm1618-576c13-17 29-30 36-30s18-7 25-15 16-13 20-10c5 3 11 1 15-4 3-5 15-7 28-4 12 3 37 7 55 10 17 3 32 9 32 14s9 9 20 9 20-5 20-11 8-8 19-4c17 5 20-1 27-62 5-47 3-68-5-71-6-2-11-14-11-27 0-12-6-25-13-28s-110-5-228-6l-216-1-23 25c-29 31-38 31-75-1-26-22-38-25-85-22l-55 3v-58c0-53-3-60-28-75-22-14-31-15-47-4-26 16-33 15-26-4 3-9-2-28-13-42-10-15-22-37-25-50-6-19-12-21-45-16-27 4-40 2-50-10-7-9-26-16-41-16-21 0-29 6-34 25-3 13-20 35-36 47l-30 22 21 23c19 20 23 35 28 106 0 10 14 26 31 35 16 9 35 28 42 42s27 39 46 55c32 30 59 96 47 115-3 6 3 10 14 10 12 0 21-5 21-11 0-13 56-5 75 11 11 9 16 7 25-9 13-25 58-28 66-6 5 13 12 12 48-8 50-28 119-30 138-4 7 9 22 18 33 20 11 1 26 6 33 10 6 5 16 6 21 3 16-10 42 6 52 30 11 31 19 30 48-6zm-2009-165v-165h-500-500v165 165h500 500v-165zm3e3 -250v-165h-525-525v165 165h525 525v-165z"/>
</g>

<path transform="scale(10)" d="m26.772 228.37c-2.7642-0.74956-6.5404-1.6179-8.3916-1.9297-3.3193-0.55906-3.3939-0.54831-5.3965 0.77696-1.7252 1.1416-2.206 1.264-3.196 0.81291-1.3678-0.62323-2.6748-3.03-3.8181-7.0309-0.45135-1.5795-1.4479-4.308-2.2146-6.0632-0.76666-1.7553-1.3939-3.7524-1.3939-4.4381 0-1.8238 3.1849-5.0186 7.1936-7.216 1.9622-1.0756 3.6811-2.3908 4.0347-3.087 0.6859-1.3506 1.695-6.706 1.695-8.9954 0-1.9396 1.6672-3.2471 5.0306-3.9453 1.4186-0.29449 3.3565-1.0629 4.3066-1.7076 0.95002-0.64471 2.5763-1.6053 3.614-2.1347 1.0377-0.52938 1.8867-1.2728 1.8867-1.6521 0-0.37927 0.47157-1.1289 1.0479-1.6659 0.90207-0.8404 1.0853-1.6524 1.3163-5.834l0.26833-4.8577 2.8718-1.7335c2.2136-1.3362 2.9939-2.1152 3.4042-3.3985 0.34599-1.0821 1.2258-2.1369 2.513-3.013 1.0894-0.7414 2.2032-1.7638 2.4751-2.272 0.27198-0.50819 1.3593-1.3652 2.4164-1.9044 3.0927-1.5778 2.9982-3.3057-0.18184-3.3231-1.9684-0.0108-3.6866-2.0691-3.6866-4.4165 0-1.0319 0.21862-2.2846 0.48582-2.7839 0.76061-1.4212 4.5696-3.8162 6.0621-3.8116 0.74233 2e-3 3.8267 0.8814 6.8541 1.9536 3.0274 1.0722 6.6691 2.1416 8.0927 2.3763 1.4392 0.23729 3.4061 0.99351 4.4303 1.7033 1.6161 1.12 2.3345 1.283 5.8577 1.3291 3.1003 0.0406 4.2266 0.2435 4.9409 0.89018 1.2468 1.1288 2.0076 1.0594 4.6635-0.42498l2.259-1.2626 2.8198 0.78396c3.9094 1.0869 4.6843 1.0159 5.2536-0.48158 0.78156-2.0557-0.24133-4.3243-2.4602-5.4562-2.3704-1.2093-2.505-2.7134-0.40114-4.4837 1.8352-1.5442 3.7816-1.5847 5.5506-0.11535 2.9239 2.4286 6.8264 1.9796 8.0401-0.92508 0.37566-0.89906 0.90938-1.6346 1.1861-1.6346 0.27668 0 0.50306-0.43077 0.50306-0.95728 0-0.62888 0.3191-0.95728 0.93015-0.95728 0.51157 0 1.2486-0.45474 1.638-1.0105 0.66483-0.94918 0.77467-0.96371 1.8089-0.23932 0.60559 0.42417 1.5541 0.77122 2.1077 0.77122s1.5125 0.53847 2.1308 1.1966c1.276 1.3582 3.2139 1.5664 4.0418 0.43418 0.30662-0.41933 1.8381-1.4424 3.4032-2.2735 3.3568-1.7825 3.7865-2.9326 1.923-5.1472-0.67713-0.80472-1.2311-1.886-1.2311-2.4028 0-1.5448 1.7389-4.4772 3.65-6.1552 1.7354-1.5237 6.0589-3.8263 7.2024-3.8358 0.30888-3e-3 1.1996-0.54151 1.9793-1.1976 1.0262-0.86352 1.5066-1.7857 1.7396-3.3393 0.17703-1.1805 0.54842-2.2864 0.82532-2.4575 0.27691-0.17114 1.3662 0.5777 2.4206 1.6641 1.8344 1.8899 2.044 1.9754 4.8536 1.9799 3.6751 6e-3 6.9646 1.4728 9.6374 4.2976 1.053 1.1129 2.7761 2.4009 3.8291 2.8622 5.7829 2.5333 7.3652 8.9277 2.4082 9.7321-0.9501 0.15418-4.3656 1.4517-7.5901 2.8834s-7.1146 2.9977-8.6448 3.4801c-3.4702 1.0939-5.6341 3.1319-9.3763 8.831-3.4321 5.2268-4.6991 8.4903-5.372 13.837-0.28313 2.2496-0.79215 4.6287-1.1311 5.2869-0.339 0.65813-2.2566 3.0274-4.2614 5.265-3.9147 4.3694-6.4775 8.8099-6.4775 11.223 0 0.82367 0.43077 2.3425 0.95728 3.3752 0.5265 1.0327 0.95728 2.0235 0.95728 2.2018 0 0.1783-0.73201 0.4615-1.6267 0.62934-2.2156 0.41565-3.7663 1.7392-4.848 4.138l-0.90774 2.013-15.813-0.24419c-10.304-0.15911-16.298-0.43733-17.205-0.7986-0.76563-0.30493-2.1193-1.193-3.0082-1.9734-2.0274-1.7801-3.5105-1.7944-5.5149-0.0532-2.6772 2.3255-3.6569 2.6076-9.889 2.8477l-5.9349 0.22863 0.34268 12.736 0.34268 12.736-2.5504 0.60327c-1.4027 0.3318-4.2147 1.5703-6.2489 2.7522-3.2397 1.8824-4.0472 2.1489-6.5095 2.1489-3.0293 0-4.9044 1.0015-7.9503 4.2461-0.7732 0.82365-1.5271 1.4703-1.6752 1.4369-0.14819-0.0333-2.531-0.67392-5.2952-1.4235z" fill="#c47e3e" id="pathA"/>
<path transform="scale(10)" d="m113.24 132.6c-2.8747-1.7544-3.4192-2.3251-4.4496-4.6638-0.64573-1.4656-1.8432-3.5009-2.6611-4.5228-1.4-1.7493-1.4519-1.9554-0.88619-3.5198 0.38764-1.072 0.48542-2.586 0.2755-4.2662-0.30196-2.4168-0.23652-2.6743 0.90834-3.5749 1.8334-1.4422 1.6478-3.5106-0.6-6.6864-3.0588-4.3216-3.0398-4.42 0.78138-4.0363 3.7924 0.38086 4.1226 0.15585 4.5979-3.1331 0.29744-2.0583 0.44861-2.2415 2.6002-3.1505 2.6172-1.1057 3.6894-2.8393 4.3798-7.0811 0.23166-1.4234 0.74428-3.2127 1.1392-3.9763 0.83614-1.6169 4.334-4.9062 5.2173-4.9062 1.6052 0 4.1913-2.5231 5.5901-5.4541 1.7318-3.6287 1.7709-4.2514 0.4533-7.23-1.3273-3.0007-0.94988-3.2106 5.0751-2.8232 4.4319 0.28502 4.9549 0.42756 7.0611 1.9245 1.2511 0.88918 2.6808 1.6167 3.1771 1.6167 0.49636 0 1.9984-0.75386 3.3378-1.6752 2.0419-1.4046 2.851-1.6752 5.0072-1.6752 1.4145 0 4.1938-0.13711 6.1763-0.30469l3.6044-0.30468 0.33891-5.6783c0.37339-6.2559 0.4756-6.4052 3.2349-4.7228 2.1888 1.3345 3.9599 1.2384 5.015-0.2722 1.9766-2.83 2.983-3.828 2.9987-2.9737 0.0255 1.3847 1.4006 1.6699 9.5199 1.9748 8.4224 0.31628 9.1968 0.16809 10.305-1.9722 0.37098-0.71614 1.7721-2.6742 3.1135-4.3513 2.3812-2.977 2.4323-3.1074 2.1571-5.5044-0.26148-2.2774-0.17789-2.5538 1.1546-3.8182 1.7139-1.6263 5.1571-2.2298 9.1839-1.6096 1.7424 0.26835 3.5687 0.20927 5.4012-0.17474 2.5441-0.53311 2.823-0.50664 3.4382 0.32635 1.6687 2.2595 4.5897 8.0095 5.1016 10.042 0.36333 1.4429 0.87029 2.32 1.4248 2.465 0.59708 0.15614 1.0235 1.0092 1.3922 2.785 0.63275 3.0479 0.15186 4.3112-1.7964 4.7191-2.9175 0.61084-8.1811 1.3748-10.893 1.581-3.8724 0.29449-4.8001 1.1955-5.2033 5.0534-0.19506 1.8662-0.62421 3.2757-1.1607 3.8122-0.46817 0.46817-2.4586 1.1804-4.4232 1.5827-1.9646 0.40234-4.1556 1.1542-4.8689 1.6707-1.634 1.1834-2.3796 1.1751-6.9429-0.07682-2.4089-0.66087-5.1601-1.0228-7.8708-1.0356-3.8184-0.01791-4.4333 0.11683-7.3422 1.6088-1.9472 0.99871-3.5253 2.1955-4.0813 3.095-1.384 2.2393-6.901 7.3367-8.799 8.1297-0.9285 0.38795-2.1836 0.70537-2.789 0.70537-1.6166 0-4.1434 1.9038-6.5881 4.9637-1.9806 2.4791-2.1784 2.975-2.4588 6.1654-0.59598 6.7814-5.1564 19.025-7.0862 19.025-0.45954 0-2.1799-0.90271-3.823-2.006-3.6222-2.4323-4.3411-2.2028-5.1122 1.6319-0.29213 1.4528-0.67248 2.8701-0.84521 3.1496-0.17274 0.27949-2.0726 1.0774-4.2219 1.7732-3.3487 1.084-4.2736 1.6367-6.4642 3.8626-1.406 1.4286-2.7672 2.5975-3.0249 2.5975-0.69481 0-0.56799 3.2462 0.24942 6.3844 0.39488 1.516 0.71797 2.9455 0.71797 3.1766 0 0.524-4.9038 3.3633-5.802 3.3593-0.36283-1e-3 -2.1337-0.90251-3.9352-2.002z" fill="#c4223e" id="pathD"/>
<path transform="scale(10)" d="m162.42 119.71c-0.50149-0.56284-1.558-1.3005-2.3477-1.6391-0.78975-0.33869-2.2975-1.5142-3.3505-2.6122-1.053-1.098-3.0178-2.4902-4.3662-3.0938-1.3484-0.60359-2.612-1.3569-2.8079-1.674-0.19599-0.31712 0.21169-1.6993 0.90594-3.0714 0.69426-1.3722 1.4697-3.7753 1.7232-5.3402 0.25352-1.5649 1.1294-4.1227 1.9463-5.684 1.4679-2.8053 1.5058-3.1809 0.66349-6.582-0.26846-1.0841 0.0411-1.6676 1.9902-3.7513 2.9603-3.1648 4.5246-3.9793 6.8787-3.5816 1.5098 0.25507 1.9934 0.1228 2.8284-0.77348 0.55399-0.59464 1.0073-1.2516 1.0073-1.4598s0.82228-0.79816 1.8273-1.3109c1.005-0.51272 2.8329-2.1538 4.0621-3.6468s3.022-3.3402 3.9842-4.1048c3.7331-2.9667 10.401-3.7228 14.344-1.6264 2.8609 1.5212 6.5892 1.6185 9.1625 0.23932 0.98234-0.52651 2.3277-0.95939 2.9898-0.96196 1.8243-0.0071 5.9299-2.0961 7.138-3.632 0.81704-1.0387 1.003-1.7337 0.78069-2.9185-0.18607-0.99182-0.0203-2.0801 0.45769-3.0044 0.80233-1.5515 0.81284-1.5559 4.0754-1.6974 1.1846-0.05136 3.5539-0.3414 5.265-0.64452 1.7111-0.30312 4.806-0.67784 6.8775-0.83271 3.1213-0.23335 3.806-0.43302 3.9976-1.1658 0.12717-0.48632 0.69389-0.95017 1.2594-1.0308 0.93953-0.13392 1.0163-0.39408 0.89018-3.0184-0.19519-4.063 0.0757-4.7193 2.7376-6.6317 2.0283-1.4572 2.387-1.9587 2.5155-3.5169 0.14932-1.8105 0.15926-1.8184 2.5978-2.0639 1.3464-0.13557 2.7626-0.50768 3.1473-0.82692 0.57161-0.4744 0.99408-0.27636 2.3127 1.0841 0.88734 0.9155 1.8728 1.6645 2.1899 1.6645s1.7287-0.53637 3.1369-1.1919c4.5827-2.1334 5.9574-1.625 8.7234 3.2262 0.71297 1.2504 1.4982 2.2735 1.745 2.2735 0.2468 0 0.88826 0.86155 1.4255 1.9146s1.2899 1.9146 1.6727 1.9146c0.96891 0 1.9578 2.1071 2.6572 5.6617 0.32644 1.6593 0.97163 3.4839 1.4337 4.0545 0.78841 0.97366 0.96854 0.99876 2.923 0.40734 4.3633-1.3203 6.225-1.1197 9.1282 0.98358 0.69813 0.50578 1.0614 0.37065 2.3932-0.89022 1.9899-1.8839 3.4489-2.6342 4.4073-2.2664 0.9757 0.37441 0.98141 2.7512 9e-3 3.5586-1.5388 1.2771-1.7576 2.3482-1.1276 5.5182 0.54086 2.7211 0.51957 3.147-0.19688 3.9386-1.6865 1.8636-0.38083 3.7543 3.8999 5.6474 1.4884 0.65822 3.1794 1.6414 3.7578 2.1848 1.0011 0.94047 1.1551 0.95284 3.1978 0.25682 1.1803-0.40218 2.2708-0.60652 2.4232-0.45409 0.54778 0.54779 0.25673 2.4032-0.91945 5.8613-1.4073 4.1375-1.4705 5.1264-0.40327 6.3056 0.68451 0.75638 0.71321 1.144 0.20924 2.8261-0.32124 1.0722-0.44574 2.5794-0.27666 3.3492 0.25809 1.1751 0.1571 1.3997-0.62928 1.3997-1.283 0-1.976-0.99043-1.507-2.1539 0.86181-2.1381 0.49883-4.898-0.85596-6.508-2.7769-3.3002-11.905-6.4623-24.068-8.3378-10.872-1.6764-12.992-2.3625-13.657-4.4199-0.78759-2.4366-1.3686-2.7254-6.0996-3.0319-4.3897-0.28436-5.9313-0.77669-10.535-3.3646-1.8059-1.0151-1.8386-1.0162-3.821-0.12549-1.6575 0.74466-2.9607 0.87622-7.6182 0.76905-4.6738-0.10754-6.124 0.04003-8.6237 0.87752-3.9825 1.3343-7.7007 3.4949-9.8611 5.73-1.1698 1.2103-2.3753 1.9341-3.5974 2.1598-1.0109 0.18672-2.9494 1.102-4.3078 2.0339-1.3584 0.93193-3.5145 2.412-4.7914 3.2891-1.2769 0.8771-2.7449 1.5947-3.2623 1.5947-1.2814 0-2.485 0.69602-5.6212 3.2504-2.3363 1.903-4.9586 3.3264-9.7199 5.2764-1.4339 0.58724-4.2037 4.0914-4.2037 5.3183 0 0.44821-0.86259 1.1789-2.0342 1.7231-3.7159 1.726-6.7422 7.7708-4.9062 9.7996 0.58601 0.64753 0.73499 1.3036 0.50455 2.2218-0.35834 1.4277-6.1078 7.3512-7.1353 7.3512-0.35184 0-1.05-0.46051-1.5515-1.0233z" fill="#54223e"  id="pathB"/>
<path transform="scale(10)" d="m325.12 63.162c-0.23597-0.32354-0.74321-1.2157-1.1272-1.9826-0.93335-1.8641-3.2233-3.2366-4.8271-2.8932-1.7432 0.37325-6.9882-1.4813-8.8752-3.1381-2.8817-2.5302-7.9693-2.348-13.994 0.50096-3.4148 1.6149-4.2624 1.7357-4.673 0.66574-0.83533-2.1768-4.9554-1.7192-6.7835 0.7535l-1.0463 1.4152-1.8064-0.94153c-2.654-1.3834-6.3031-1.7951-7.0353-0.79382-0.31597 0.43212-1.086 0.84272-1.7112 0.91246-1.0351 0.11546-1.1653-0.09876-1.457-2.3967-0.43321-3.4125-2.2916-6.9664-5.3885-10.305-1.4168-1.5273-3.2688-3.7889-4.1155-5.0257-0.84674-1.2368-2.5421-3.0026-3.7675-3.924-3.1045-2.3343-3.3072-2.6879-3.6833-6.4234-0.45992-4.5687-0.88313-5.8031-2.7854-8.1247l-1.649-2.0123 2.6517-2.3379c1.4855-1.3097 3.0436-3.2239 3.5428-4.3525 1.3459-3.0427 3.7943-3.4949 6.9276-1.2796 1.6512 1.1674 2.2888 1.3163 5.6383 1.3163h3.7766l0.58782 1.6854c0.3233 0.92694 1.2623 2.7816 2.0867 4.1214 1.0457 1.6995 1.4989 3.0351 1.4989 4.4173 0 2.2628 0.26528 2.3538 2.9181 1.0004 2.233-1.1392 3.1814-0.95383 5.4895 1.0727l1.6438 1.4433v10.91h11.393l2.8653 2.1539c3.7809 2.8421 4.8396 2.8175 7.8394-0.18232l2.3362-2.3362 20.929 0.22814c11.511 0.12548 21.575 0.38168 22.365 0.56935 1.2264 0.29143 1.5191 0.67419 2.0061 2.6235 0.31361 1.2552 0.83015 2.5955 1.1479 2.9783 0.71146 0.85727 0.30481 10.61-0.50555 12.124-0.40696 0.76042-0.81788 0.92412-1.7393 0.69286-0.87908-0.22064-1.4634-0.027-2.1534 0.71365-1.1854 1.2723-1.8847 1.2774-3.4765 0.02533-1.7656-1.3888-9.6017-2.9383-11.275-2.2296-0.67925 0.28761-1.6211 0.56249-2.0929 0.61084-0.47185 0.04835-1.3334 0.51279-1.9146 1.0321-0.58116 0.51931-1.7672 1.225-2.6358 1.5681-0.86851 0.34315-2.3575 1.5739-3.309 2.735-2.067 2.5225-3.2088 3.2435-3.8167 2.41z" fill="#5422b6"  id="pathE"/>
<path transform="scale(10)" d="m413.96 158.57c-1.8102-0.54928-3.3335-1.4257-5.4764-3.1508-1.053-0.84767-2.5964-1.8873-3.4298-2.3102-0.83338-0.42295-2.4558-2.0113-3.6054-3.5298s-3.1601-3.4802-4.4678-4.3594l-2.3776-1.5987-0.23932-10.367-0.23932-10.367-6.2468-0.23932c-5.2296-0.20035-6.4669-0.39519-7.5986-1.1966-2.9379-2.0805-3.8938-2.6276-4.5952-2.63-0.40196-1e-3 -1.8775 0.85904-3.2789 1.912-2.2438 1.6859-2.8585 1.9146-5.1479 1.9146-3.4183 0-5.492-0.92287-7.1454-3.18-2.0077-2.7407-2.4202-2.9663-6.0846-3.3274-3.1668-0.31205-3.512-0.46754-5.9606-2.6849-1.6232-1.47-2.9893-2.3228-3.6385-2.2714-1.9446 0.154-2.1911-0.0233-3.1955-2.2972-1.3119-2.9703-3.2657-4.982-7.6438-7.8707-3.3644-2.2198-22.453-12.123-22.723-11.789-0.9265 1.1511-2.7531 5.0574-3.3694 7.2057-0.43285 1.5088-0.97019 2.8566-1.1941 2.9949s-0.97809 0.0345-1.676-0.23084c-0.96554-0.3671-1.1978-0.70654-0.97138-1.4198 0.20677-0.65148-0.0754-1.2617-0.92515-2.0005-0.67246-0.5847-1.2227-1.2391-1.2227-1.4543 0-0.21517 0.75386-1.4405 1.6752-2.723s1.6752-2.7907 1.6752-3.3516c0-0.86996-0.28014-1.0198-1.9069-1.0198h-1.9069l0.96996-1.8609c1.0891-2.0894 1.8658-6.1688 1.5195-7.9804-0.31708-1.6587-1.407-2.102-4.9537-2.015-2.5601 0.06285-3.5981-0.1821-6.4027-1.5109l-3.3472-1.5859 1.7917-1.5488c0.9854-0.85182 1.7916-1.8626 1.7916-2.2461s-0.64617-1.3164-1.4359-2.073c-1.9692-1.8866-1.8285-3.106 0.61853-5.3616 3.6323-3.3482 9.0093-5.3734 14.327-5.3961 2.5156-0.01074 2.7961 0.09693 3.4262 1.3154 0.55501 1.0733 1.3793 1.531 4.31 2.3932 1.993 0.58636 4.583 1.0661 5.7554 1.0661 1.7957 0 2.1827 0.16976 2.4553 1.0769 0.17798 0.59232 1.0276 1.8308 1.888 2.7522 0.86041 0.92138 1.8621 2.3214 2.226 3.1112 0.37626 0.81658 1.0986 1.4985 1.6747 1.5811 0.91768 0.1315 1.0329-0.12817 1.223-2.7575 0.18205-2.5169 0.42852-3.1282 1.8543-4.5993 1.8186-1.8765 7.2504-4.7898 9.8339-5.2745 1.2109-0.22717 1.8996-0.09554 2.542 0.48588 0.48464 0.4386 2.857 1.1938 5.2718 1.6783s4.5087 0.9988 4.6529 1.143c0.14422 0.14422-0.0828 0.75484-0.50457 1.3569-0.42173 0.6021-0.76678 1.5516-0.76678 2.11s-0.87672 2.3209-1.9483 3.9167c-1.4992 2.2326-1.9129 3.2704-1.7949 4.5022l0.15335 1.6008 2.6896-0.08831c2.4267-0.07968 2.7415 0.02561 3.2206 1.0769 0.6656 1.4608 1.0865 1.4587 2.837-0.01422 1.3835-1.1641 2.9027-1.6342 8.4346-2.6096 1.5524-0.27373 3.2226-0.85969 3.7114-1.3021 0.79397-0.71854 1.1699-0.73704 3.52-0.17326 1.9987 0.47949 2.9167 0.50108 3.8193 0.08983 1.022-0.46564 1.3483-0.38118 2.3333 0.6038 0.62984 0.62984 2.3575 1.8293 3.8392 2.6656 3.4178 1.9289 4.2073 2.9592 6.0901 7.9478 1.632 4.324 2.6484 5.4406 4.9626 5.4519 2.5808 0.01257 3.682 0.95246 4.3928 3.7494 0.81061 3.1898 2.0092 4.7405 4.8576 6.2846 1.2246 0.66387 2.4712 1.6997 2.7701 2.3019 1.3833 2.7866 6.7354 6.7598 10.347 7.6811 3.818 0.97402 6.2898 4.425 6.8751 9.5985 0.1859 1.643 0.63166 3.281 0.9906 3.64 0.83357 0.83357 0.81713 2.2196-0.0654 5.5074-0.91742 3.418-0.90039 4.9964 0.0625 5.7956 0.67428 0.5596 0.8859 0.49207 1.5556-0.49641 1.4667-2.1649 4.7189-5.2992 5.4986-5.2992 0.79366 0 2.6955 1.6108 2.6955 2.283 0 0.20262-0.96698 1.6565-2.1488 3.2308-1.1819 1.5743-2.1511 3.1047-2.1539 3.4009-8e-3 0.81104 2.4034 1.1368 8.4142 1.1368 6.2557 0 6.4187 0.109 6.4187 4.2922 0 1.6545 0.38542 3.2012 1.1966 4.802 1.4037 2.7702 1.5271 4.6744 0.35898 5.5432-0.66058 0.49135-0.72613 0.806-0.3101 1.4887 1.0107 1.6586 2.2536 1.2733 4.1689-1.2921 3.1706-4.2469 4.9921-4.2523 9.1538-0.0271l2.2737 2.3084-2.5889 3.0494-2.5889 3.0494-6.191 0.15119c-3.4051 0.0831-8.1938 8e-3 -10.642-0.16608l-4.4507-0.31726-1.1117-1.7485c-0.91706-1.4424-1.6179-1.894-4.0037-2.58-2.1133-0.60762-3.1932-1.2297-4.0104-2.3104-2.3027-3.0449-3.2206-3.7984-4.6278-3.7984-0.76949 0-1.6672 0.32308-1.9949 0.71796-0.34218 0.4123-1.386 0.71796-2.4518 0.71796-1.3845 0-1.856 0.19512-1.856 0.76811 0 0.80484 1.7923 4.5958 3.4273 7.2491l0.95856 1.5556-1.834-0.0411c-1.0087-0.0226-2.385-0.20835-3.0585-0.41272z" fill="#c722b6"  id="pathC"/>

<text x="612.66046" y="2245.126" fill="#000000" font-family="sans-serif" font-size="400px" letter-spacing="0px" stroke-width="10px" word-spacing="0px" style="line-height:125%" xml:space="preserve"><tspan x="612.66046" y="2245.126" stroke-width="10px">A</tspan></text>
<text x="2268.7583" y="1053.3101" fill="#000000" font-family="sans-serif" font-size="400px" letter-spacing="0px" stroke-width="10px" word-spacing="0px" style="line-height:125%" xml:space="preserve"><tspan x="2268.7583" y="1053.3101" stroke-width="10px">B</tspan></text>
<text x="3623.3123" y="1546.3103" fill="#000000" font-family="sans-serif" font-size="400px" letter-spacing="0px" stroke-width="10px" word-spacing="0px" style="line-height:125%" xml:space="preserve"><tspan x="3623.3123" y="1546.3103" stroke-width="10px">C</tspan></text>
<text x="1306.6897" y="593.81476" fill="#000000" font-family="sans-serif" font-size="400px" letter-spacing="0px" stroke-width="10px" word-spacing="0px" style="line-height:125%" xml:space="preserve"><tspan x="1306.6897" y="593.81476" stroke-width="10px">D</tspan></text>
<text x="2919.71" y="335.3486" fill="#000000" font-family="sans-serif" font-size="400px" letter-spacing="0px" stroke-width="10px" word-spacing="0px" style="line-height:125%" xml:space="preserve"><tspan x="2919.71" y="335.3486" stroke-width="10px">E</tspan></text>

<text x="994.45856" y="2112.8738" fill="#000000" font-family="sans-serif" font-size="150px" letter-spacing="0px" stroke-width="9.3554px" word-spacing="0px" style="line-height:125%" xml:space="preserve"><tspan x="994.45856" y="2112.8738" stroke-width="9.3554px" id="areaA">areaA</tspan></text>
<text x="2390.8975" y="1321.2932" fill="#000000" font-family="sans-serif" font-size="150px" letter-spacing="0px" stroke-width="9.3554px" word-spacing="0px" style="line-height:125%" xml:space="preserve"><tspan x="2390.8975" y="1321.2932" stroke-width="9.3554px" id="areaB">areaB</tspan></text>
<text x="3845.22" y="1783.5763" fill="#000000" font-family="sans-serif" font-size="150px" letter-spacing="0px" stroke-width="9.3554px" word-spacing="0px" style="line-height:125%" xml:space="preserve"><tspan x="3845.22" y="1783.5763" stroke-width="9.3554px" id="areaC">areaC</tspan></text>
<text x="285.38596" y="542.37793" fill="#000000" font-family="sans-serif" font-size="150px" letter-spacing="0px" stroke-width="9.3554px" word-spacing="0px" style="line-height:125%" xml:space="preserve"><tspan x="285.38596" y="542.37793" stroke-width="9.3554px" id="areaD">areaD</tspan></text>
<text x="3440.0356" y="301.73743" fill="#000000" font-family="sans-serif" font-size="150px" letter-spacing="0px" stroke-width="9.3554px" word-spacing="0px" style="line-height:125%" xml:space="preserve"><tspan x="3440.0356" y="301.73743" stroke-width="9.3554px" id="areaE">areaE</tspan></text>
</svg>
